<svg xmlns="http://www.w3.org/2000/svg" xmlns:xlink="http://www.w3.org/1999/xlink" contentStyleType="text/css" height="668px" preserveAspectRatio="none" style="width:1034px;height:668px;background:#FFFFFF;" version="1.1" viewBox="0 0 1034 668" width="1034px" zoomAndPan="magnify"><defs/><g><!--cluster Usuario--><g id="cluster_Usuario"><polygon fill="none" points="56,26,66,16,240,16,240,108,230,118,56,118,56,26" style="stroke:#181818;stroke-width:1;"/><line style="stroke:#181818;stroke-width:1;" x1="230" x2="240" y1="26" y2="16"/><line style="stroke:#181818;stroke-width:1;" x1="56" x2="230" y1="26" y2="26"/><line style="stroke:#181818;stroke-width:1;" x1="230" x2="230" y1="26" y2="118"/><text fill="#000000" font-family="sans-serif" font-size="14" font-weight="bold" lengthAdjust="spacing" textLength="60.4365" x="113.7817" y="41.9951">Usuario</text></g><!--cluster WebApp--><g id="cluster_WebApp"><path d="M62.0947,191.5663 C65.9211,185.5719 71.1733,185.6401 74.7874,191.7882 C79.1821,185.9391 83.9183,183.7797 88.8398,191.2317 C91.8568,185.2893 95.8996,185.0116 100.3452,189.6832 C103.3423,183.7355 107.0725,183.5544 111.5606,188.0877 C116.8675,181.0278 121.4864,183.2645 125.5017,189.4474 C128.5581,183.5791 132.6412,184.8169 136.1399,188.9782 C139.4609,182.9238 144.0903,181.9299 148.9256,187.2805 C152.8868,180.867 157.2046,182.0978 161.0818,187.3678 C165.5972,181.0525 171.3051,182.2137 174.5766,188.681 C179.0947,183.9887 183.1121,183.5904 186.1496,190.1975 C189.7561,184.1055 194.5285,184.5677 197.8499,190.4754 C201.3698,184.4422 206.774,186.2378 209.4905,191.317 C212.5095,184.6303 217.2037,183.4402 222.0236,189.5537 C226.8124,183.4733 230.8338,184.0754 234.7031,190.487 C242.3448,194.518 241.1044,200.4834 235.0899,204.8813 C241.5198,208.5203 242.3057,212.7916 237.5725,218.4701 C244.5115,223.0472 243.983,228.5943 236.4266,231.9381 C242.6778,235.8649 242.5217,240.1649 236.7505,244.4041 C242.3915,248.7915 242.3453,254.8095 236.1681,258.716 C242.9259,263.5204 240.755,269.4058 234.2717,272.3713 C231.1694,278.4331 225.5403,276.9696 222.5606,272.2383 C219.7833,277.6418 215.5274,278.1121 211.3253,273.9037 C207.6162,279.7432 203.4543,281.2528 198.3014,275.5301 C195.4659,282.3779 189.6154,281.1027 185.9964,276.362 C182.8167,281.9585 178.3271,282.6053 174.3972,277.1492 C170.0945,283.028 166.3284,282.7526 162.1714,276.9961 C158.8201,282.5871 152.3872,283.4165 149.1203,276.905 C145.5113,282.1913 140.131,281.8967 137.7235,275.7114 C134.0494,283.572 127.9555,282.3208 123.7084,276.2895 C119.9139,280.8099 115.4932,279.225 113.2508,274.5285 C109.7956,281.4667 103.6328,281.1016 99.9484,274.7581 C95.4069,280.2901 90.7486,280.0715 87.8026,273.1963 C84.6675,280.4523 78.8618,280.467 74.9215,273.9493 C70.452,278.4874 66.534,279.1084 63.2637,272.675 C55.4229,269.7668 54.2479,265.4674 60.3657,259.4909 C53.6232,255.9987 52.2065,249.7352 58.1499,244.3825 C50.9319,242.0078 50.0383,238.0101 55.4916,232.7418 C50.197,227.58 50.7792,220.9198 58.3035,218.2444 C52.7656,212.5201 54.0041,207.4414 61.343,204.5817 C54.5222,199.9912 55.0007,195.3531 62.0947,191.5663 " fill="none" style="stroke:#181818;stroke-width:1;"/><text fill="#000000" font-family="sans-serif" font-size="14" font-weight="bold" lengthAdjust="spacing" textLength="65.8369" x="115.0815" y="207.9951">WebApp</text></g><!--cluster Backend (Servidor)--><g id="cluster_Backend (Servidor)"><polygon fill="none" points="16,338,26,328,825,328,825,543,815,553,16,553,16,338" style="stroke:#181818;stroke-width:1;"/><line style="stroke:#181818;stroke-width:1;" x1="815" x2="825" y1="338" y2="328"/><line style="stroke:#181818;stroke-width:1;" x1="16" x2="815" y1="338" y2="338"/><line style="stroke:#181818;stroke-width:1;" x1="815" x2="815" y1="338" y2="553"/><text fill="#000000" font-family="sans-serif" font-size="14" font-weight="bold" lengthAdjust="spacing" textLength="151.833" x="340.5835" y="353.9951">Backend (Servidor)</text></g><!--cluster WikiData--><g id="cluster_WikiData"><path d="M682,177 C682,167 763,167 763,167 C763,167 844,167 844,177 L844,269 C844,279 763,279 763,279 C763,279 682,279 682,269 L682,177 " fill="none" style="stroke:#181818;stroke-width:1;"/><path d="M682,177 C682,187 763,187 763,187 C763,187 844,187 844,177 " fill="none" style="stroke:#181818;stroke-width:1;"/><text fill="#000000" font-family="sans-serif" font-size="14" font-weight="bold" lengthAdjust="spacing" textLength="71.5586" x="727.2207" y="201.9951">WikiData</text></g><!--cluster MongoDB--><g id="cluster_MongoDB"><path d="M614,16 C614,6 799,6 799,6 C799,6 984,6 984,16 L984,108 C984,118 799,118 799,118 C799,118 614,118 614,108 L614,16 " fill="none" style="stroke:#181818;stroke-width:1;"/><path d="M614,16 C614,26 799,26 799,26 C799,26 984,26 984,16 " fill="none" style="stroke:#181818;stroke-width:1;"/><text fill="#000000" font-family="sans-serif" font-size="14" font-weight="bold" lengthAdjust="spacing" textLength="75.4482" x="761.2759" y="40.9951">MongoDB</text></g><!--cluster Monitorizaci?n de Resultados--><g id="cluster_Monitorizaci&#243;n de Resultados"><polygon fill="none" points="281,26,291,16,590,16,590,269,580,279,281,279,281,26" style="stroke:#181818;stroke-width:1;"/><line style="stroke:#181818;stroke-width:1;" x1="580" x2="590" y1="26" y2="16"/><line style="stroke:#181818;stroke-width:1;" x1="281" x2="580" y1="26" y2="26"/><line style="stroke:#181818;stroke-width:1;" x1="580" x2="580" y1="26" y2="279"/><text fill="#000000" font-family="sans-serif" font-size="14" font-weight="bold" lengthAdjust="spacing" textLength="233.3584" x="314.8208" y="41.9951">Monitorizaci&#243;n de Resultados</text></g><!--entity Navegador Web--><g id="elem_Navegador Web"><rect fill="#F1F1F1" height="46.2969" rx="2.5" ry="2.5" style="stroke:#181818;stroke-width:0.5;" width="152.417" x="72" y="56"/><rect fill="#F1F1F1" height="10" style="stroke:#181818;stroke-width:0.5;" width="15" x="204.417" y="61"/><rect fill="#F1F1F1" height="2" style="stroke:#181818;stroke-width:0.5;" width="4" x="202.417" y="63"/><rect fill="#F1F1F1" height="2" style="stroke:#181818;stroke-width:0.5;" width="4" x="202.417" y="67"/><text fill="#000000" font-family="sans-serif" font-size="14" lengthAdjust="spacing" textLength="112.417" x="87" y="88.9951">Navegador Web</text></g><!--entity Aplicaci?n React--><g id="elem_Aplicaci&#243;n React"><rect fill="#F1F1F1" height="46.2969" rx="2.5" ry="2.5" style="stroke:#181818;stroke-width:0.5;" width="156.1016" x="70" y="217"/><rect fill="#F1F1F1" height="10" style="stroke:#181818;stroke-width:0.5;" width="15" x="206.1016" y="222"/><rect fill="#F1F1F1" height="2" style="stroke:#181818;stroke-width:0.5;" width="4" x="204.1016" y="224"/><rect fill="#F1F1F1" height="2" style="stroke:#181818;stroke-width:0.5;" width="4" x="204.1016" y="228"/><text fill="#000000" font-family="sans-serif" font-size="14" lengthAdjust="spacing" textLength="116.1016" x="85" y="249.9951">Aplicaci&#243;n React</text></g><!--entity Gateway--><g id="elem_Gateway"><rect fill="#F1F1F1" height="46.2969" rx="2.5" ry="2.5" style="stroke:#181818;stroke-width:0.5;" width="101.8447" x="259" y="368"/><rect fill="#F1F1F1" height="10" style="stroke:#181818;stroke-width:0.5;" width="15" x="340.8447" y="373"/><rect fill="#F1F1F1" height="2" style="stroke:#181818;stroke-width:0.5;" width="4" x="338.8447" y="375"/><rect fill="#F1F1F1" height="2" style="stroke:#181818;stroke-width:0.5;" width="4" x="338.8447" y="379"/><text fill="#000000" font-family="sans-serif" font-size="14" lengthAdjust="spacing" textLength="61.8447" x="274" y="400.9951">Gateway</text></g><!--entity LLM_Service--><g id="elem_LLM_Service"><rect fill="#F1F1F1" height="46.2969" rx="2.5" ry="2.5" style="stroke:#181818;stroke-width:0.5;" width="126.4199" x="645" y="491"/><rect fill="#F1F1F1" height="10" style="stroke:#181818;stroke-width:0.5;" width="15" x="751.4199" y="496"/><rect fill="#F1F1F1" height="2" style="stroke:#181818;stroke-width:0.5;" width="4" x="749.4199" y="498"/><rect fill="#F1F1F1" height="2" style="stroke:#181818;stroke-width:0.5;" width="4" x="749.4199" y="502"/><text fill="#000000" font-family="sans-serif" font-size="14" lengthAdjust="spacing" textLength="86.4199" x="660" y="523.9951">LLM_Service</text></g><!--entity Servicio Autenticaci?n (authservice)--><g id="elem_Servicio Autenticaci&#243;n (authservice)"><rect fill="#F1F1F1" height="46.2969" rx="2.5" ry="2.5" style="stroke:#181818;stroke-width:0.5;" width="293.4766" x="32.5" y="491"/><rect fill="#F1F1F1" height="10" style="stroke:#181818;stroke-width:0.5;" width="15" x="305.9766" y="496"/><rect fill="#F1F1F1" height="2" style="stroke:#181818;stroke-width:0.5;" width="4" x="303.9766" y="498"/><rect fill="#F1F1F1" height="2" style="stroke:#181818;stroke-width:0.5;" width="4" x="303.9766" y="502"/><text fill="#000000" font-family="sans-serif" font-size="14" lengthAdjust="spacing" textLength="253.4766" x="47.5" y="523.9951">Servicio Autenticaci&#243;n (authservice)</text></g><!--entity Servicio Usuario (userservice)--><g id="elem_Servicio Usuario (userservice)"><rect fill="#F1F1F1" height="46.2969" rx="2.5" ry="2.5" style="stroke:#181818;stroke-width:0.5;" width="249.2959" x="360.5" y="491"/><rect fill="#F1F1F1" height="10" style="stroke:#181818;stroke-width:0.5;" width="15" x="589.7959" y="496"/><rect fill="#F1F1F1" height="2" style="stroke:#181818;stroke-width:0.5;" width="4" x="587.7959" y="498"/><rect fill="#F1F1F1" height="2" style="stroke:#181818;stroke-width:0.5;" width="4" x="587.7959" y="502"/><text fill="#000000" font-family="sans-serif" font-size="14" lengthAdjust="spacing" textLength="209.2959" x="375.5" y="523.9951">Servicio Usuario (userservice)</text></g><!--entity API WikiData--><g id="elem_API WikiData"><rect fill="#F1F1F1" height="46.2969" rx="2.5" ry="2.5" style="stroke:#181818;stroke-width:0.5;" width="129.7559" x="698" y="217"/><rect fill="#F1F1F1" height="10" style="stroke:#181818;stroke-width:0.5;" width="15" x="807.7559" y="222"/><rect fill="#F1F1F1" height="2" style="stroke:#181818;stroke-width:0.5;" width="4" x="805.7559" y="224"/><rect fill="#F1F1F1" height="2" style="stroke:#181818;stroke-width:0.5;" width="4" x="805.7559" y="228"/><text fill="#000000" font-family="sans-serif" font-size="14" lengthAdjust="spacing" textLength="89.7559" x="713" y="249.9951">API WikiData</text></g><!--entity Base Datos de las partidas de los usuarios--><g id="elem_Base Datos de las partidas de los usuarios"><rect fill="#F1F1F1" height="46.2969" rx="2.5" ry="2.5" style="stroke:#181818;stroke-width:0.5;" width="336.9463" x="630.5" y="56"/><rect fill="#F1F1F1" height="10" style="stroke:#181818;stroke-width:0.5;" width="15" x="947.4463" y="61"/><rect fill="#F1F1F1" height="2" style="stroke:#181818;stroke-width:0.5;" width="4" x="945.4463" y="63"/><rect fill="#F1F1F1" height="2" style="stroke:#181818;stroke-width:0.5;" width="4" x="945.4463" y="67"/><text fill="#000000" font-family="sans-serif" font-size="14" lengthAdjust="spacing" textLength="296.9463" x="645.5" y="88.9951">Base Datos de las partidas de los usuarios</text></g><!--entity Prometheus--><g id="elem_Prometheus"><rect fill="#F1F1F1" height="46.2969" rx="2.5" ry="2.5" style="stroke:#181818;stroke-width:0.5;" width="124.1572" x="311" y="217"/><rect fill="#F1F1F1" height="10" style="stroke:#181818;stroke-width:0.5;" width="15" x="415.1572" y="222"/><rect fill="#F1F1F1" height="2" style="stroke:#181818;stroke-width:0.5;" width="4" x="413.1572" y="224"/><rect fill="#F1F1F1" height="2" style="stroke:#181818;stroke-width:0.5;" width="4" x="413.1572" y="228"/><text fill="#000000" font-family="sans-serif" font-size="14" lengthAdjust="spacing" textLength="84.1572" x="326" y="249.9951">Prometheus</text></g><!--entity Grafana--><g id="elem_Grafana"><rect fill="#F1F1F1" height="46.2969" rx="2.5" ry="2.5" style="stroke:#181818;stroke-width:0.5;" width="96.1436" x="311" y="56"/><rect fill="#F1F1F1" height="10" style="stroke:#181818;stroke-width:0.5;" width="15" x="387.1436" y="61"/><rect fill="#F1F1F1" height="2" style="stroke:#181818;stroke-width:0.5;" width="4" x="385.1436" y="63"/><rect fill="#F1F1F1" height="2" style="stroke:#181818;stroke-width:0.5;" width="4" x="385.1436" y="67"/><text fill="#000000" font-family="sans-serif" font-size="14" lengthAdjust="spacing" textLength="56.1436" x="326" y="88.9951">Grafana</text></g><!--entity Base de Datos de Usuarios--><g id="elem_Base de Datos de Usuarios"><rect fill="#F1F1F1" height="46.2969" rx="2.5" ry="2.5" style="stroke:#181818;stroke-width:0.5;" width="228.0977" x="217" y="616"/><rect fill="#F1F1F1" height="10" style="stroke:#181818;stroke-width:0.5;" width="15" x="425.0977" y="621"/><rect fill="#F1F1F1" height="2" style="stroke:#181818;stroke-width:0.5;" width="4" x="423.0977" y="623"/><rect fill="#F1F1F1" height="2" style="stroke:#181818;stroke-width:0.5;" width="4" x="423.0977" y="627"/><text fill="#000000" font-family="sans-serif" font-size="14" lengthAdjust="spacing" textLength="188.0977" x="232" y="648.9951">Base de Datos de Usuarios</text></g><!--link Navegador Web to Aplicaci?n React--><g id="link_Navegador Web_Aplicaci&#243;n React"><path d="M148,102.11 C148,132.4 148,180.5 148,210.82 " fill="none" id="Navegador Web-to-Aplicaci&#243;n React" style="stroke:#181818;stroke-width:1;"/><polygon fill="#181818" points="148,216.82,152,207.82,148,211.82,144,207.82,148,216.82" style="stroke:#181818;stroke-width:1;"/><text fill="#000000" font-family="sans-serif" font-size="13" lengthAdjust="spacing" textLength="91.019" x="149" y="147.0669">HTTP Request</text></g><!--link Aplicaci?n React to Gateway--><g id="link_Aplicaci&#243;n React_Gateway"><path d="M126.71,263.13 C115.38,277.68 105.7,296.76 116,312 C147.71,358.92 206.8871,376.6612 252.9071,384.1112 " fill="none" id="Aplicaci&#243;n React-to-Gateway" style="stroke:#181818;stroke-width:1;"/><polygon fill="#181818" points="258.83,385.07,250.5849,379.6832,253.8943,384.271,249.3064,387.5803,258.83,385.07" style="stroke:#181818;stroke-width:1;"/><text fill="#000000" font-family="sans-serif" font-size="13" lengthAdjust="spacing" textLength="33.4395" x="117" y="308.0669">REST</text></g><!--link Gateway to Aplicaci?n React--><g id="link_Gateway_Aplicaci&#243;n React"><path d="M270.31,367.98 C247.04,353.87 217.98,334.11 196,312 C181.52,297.44 171.7388,283.1236 162.9988,268.2436 " fill="none" id="Gateway-to-Aplicaci&#243;n React" style="stroke:#181818;stroke-width:1;"/><polygon fill="#181818" points="159.96,263.07,161.0691,272.8562,162.4923,267.3813,167.9672,268.8045,159.96,263.07" style="stroke:#181818;stroke-width:1;"/><text fill="#000000" font-family="sans-serif" font-size="13" lengthAdjust="spacing" textLength="137.5537" x="197" y="308.0669">Enviar info al usuario</text></g><!--link Gateway to Servicio Autenticaci?n (authservice)--><g id="link_Gateway_Servicio Autenticaci&#243;n (authservice)"><path d="M258.93,395.41 C194.18,400.92 88.05,414.33 64,444 C47.72,464.08 61.6356,477.4166 88.9056,488.6966 " fill="none" id="Gateway-to-Servicio Autenticaci&#243;n (authservice)" style="stroke:#181818;stroke-width:1;"/><polygon fill="#181818" points="94.45,490.99,87.6623,483.8536,89.8297,489.0788,84.6045,491.2462,94.45,490.99" style="stroke:#181818;stroke-width:1;"/><text fill="#000000" font-family="sans-serif" font-size="13" lengthAdjust="spacing" textLength="139.896" x="65" y="457.0669">Validaci&#243;n de usuario</text></g><!--link Gateway to LLM_Service--><g id="link_Gateway_LLM_Service"><path d="M330.17,414.21 C345.92,430.02 369.23,450.3 394,461 C489.85,502.41 524.6,470.6 627,491 C632.86,492.17 633.0874,492.1125 639.1374,493.5725 " fill="none" id="Gateway-to-LLM_Service" style="stroke:#181818;stroke-width:1;"/><polygon fill="#181818" points="644.97,494.98,637.1595,488.9803,640.1095,493.8071,635.2828,496.7571,644.97,494.98" style="stroke:#181818;stroke-width:1;"/><text fill="#000000" font-family="sans-serif" font-size="13" lengthAdjust="spacing" textLength="135.1416" x="395" y="457.0669">Usuario solicita pista</text></g><!--link LLM_Service to Gateway--><g id="link_LLM_Service_Gateway"><path d="M646.89,490.98 C623.05,482.08 595.58,471.45 571,461 C554.72,454.08 551.72,449.8 535,444 C476.86,423.82 413.4506,410.2274 367.2706,401.7174 " fill="none" id="LLM_Service-to-Gateway" style="stroke:#181818;stroke-width:1;"/><polygon fill="#181818" points="361.37,400.63,369.4961,406.1948,366.2872,401.5361,370.9459,398.3273,361.37,400.63" style="stroke:#181818;stroke-width:1;"/><text fill="#000000" font-family="sans-serif" font-size="13" lengthAdjust="spacing" textLength="233.0225" x="572" y="457.0669">Responder con la pista no impl&#237;cita.</text></g><!--link Gateway to Servicio Usuario (userservice)--><g id="link_Gateway_Servicio Usuario (userservice)"><path d="M267.58,414.2 C248.03,427.35 231.78,444.6 245,461 C253.01,470.93 300.1393,481.8631 354.3193,491.8431 " fill="none" id="Gateway-to-Servicio Usuario (userservice)" style="stroke:#181818;stroke-width:1;"/><polygon fill="#181818" points="360.22,492.93,352.0935,487.3658,355.3027,492.0242,350.6443,495.2334,360.22,492.93" style="stroke:#181818;stroke-width:1;"/><text fill="#000000" font-family="sans-serif" font-size="13" lengthAdjust="spacing" textLength="107.542" x="246" y="457.0669">Manejo de datos</text></g><!--link API WikiData to Gateway--><g id="link_API WikiData_Gateway"><path d="M697.64,253.57 C651.85,263.1 589.52,277.52 536,295 C472.28,315.82 406.8641,344.4578 361.7741,365.3478 " fill="none" id="API WikiData-to-Gateway" style="stroke:#181818;stroke-width:1;"/><polygon fill="#181818" points="356.33,367.87,366.1777,367.7161,360.8668,365.7681,362.8147,360.4572,356.33,367.87" style="stroke:#181818;stroke-width:1;"/><text fill="#000000" font-family="sans-serif" font-size="13" lengthAdjust="spacing" textLength="268.0996" x="537" y="308.0669">Env&#237;a la imagen y almacena la respuesta</text></g><!--link API WikiData to LLM_Service--><g id="link_API WikiData_LLM_Service"><path d="M788.74,263.22 C797.19,272.14 805.56,283.13 810,295 C835.86,364.1 848.54,398.09 810,461 C801.02,475.66 791.8182,483.65 776.4782,491.38 " fill="none" id="API WikiData-to-LLM_Service" style="stroke:#181818;stroke-width:1;"/><polygon fill="#181818" points="771.12,494.08,780.9573,493.6021,775.5851,491.83,777.3572,486.4578,771.12,494.08" style="stroke:#181818;stroke-width:1;"/><text fill="#000000" font-family="sans-serif" font-size="13" lengthAdjust="spacing" textLength="191.75" x="835" y="395.5669">Env&#237;a las pistas no impl&#237;citas.</text></g><!--link Servicio Autenticaci?n (authservice) to Base de Datos de Usuarios--><g id="link_Servicio Autenticaci&#243;n (authservice)_Base de Datos de Usuarios"><path d="M206.53,537.27 C234.07,559.57 271.5352,589.8864 299.0152,612.1164 " fill="none" id="Servicio Autenticaci&#243;n (authservice)-to-Base de Datos de Usuarios" style="stroke:#181818;stroke-width:1;"/><polygon fill="#181818" points="303.68,615.89,299.1986,607.1198,299.7927,612.7454,294.1671,613.3395,303.68,615.89" style="stroke:#181818;stroke-width:1;"/><text fill="#000000" font-family="sans-serif" font-size="13" lengthAdjust="spacing" textLength="35.2993" x="265" y="582.0669">Login</text></g><!--link Servicio Usuario (userservice) to Base de Datos de Usuarios--><g id="link_Servicio Usuario (userservice)_Base de Datos de Usuarios"><path d="M457.11,537.27 C429.2,559.57 391.2087,589.9161 363.3687,612.1461 " fill="none" id="Servicio Usuario (userservice)-to-Base de Datos de Usuarios" style="stroke:#181818;stroke-width:1;"/><polygon fill="#181818" points="358.68,615.89,368.2089,613.4,362.5872,612.7701,363.2171,607.1484,358.68,615.89" style="stroke:#181818;stroke-width:1;"/><text fill="#000000" font-family="sans-serif" font-size="13" lengthAdjust="spacing" textLength="107.542" x="418" y="582.0669">Manejo de datos</text></g><!--link Prometheus to Gateway--><g id="link_Prometheus_Gateway"><path d="M363.57,263.31 C351.69,291.4 333.7355,333.8532 321.8355,362.0132 " fill="none" id="Prometheus-to-Gateway" style="stroke:#181818;stroke-width:1;"/><polygon fill="#181818" points="319.5,367.54,326.6878,360.8069,321.4463,362.9344,319.3188,357.6928,319.5,367.54" style="stroke:#181818;stroke-width:1;"/><text fill="#000000" font-family="sans-serif" font-size="13" lengthAdjust="spacing" textLength="124.687" x="349" y="308.0669">Recolecta m&#233;tricas</text></g><!--link Grafana to Prometheus--><g id="link_Grafana_Prometheus"><path d="M360.95,102.11 C363.61,132.4 367.8537,180.5231 370.5237,210.8431 " fill="none" id="Grafana-to-Prometheus" style="stroke:#181818;stroke-width:1;"/><polygon fill="#181818" points="371.05,216.82,374.2451,207.5038,370.6114,211.8393,366.2759,208.2056,371.05,216.82" style="stroke:#181818;stroke-width:1;"/><text fill="#000000" font-family="sans-serif" font-size="13" lengthAdjust="spacing" textLength="122.3638" x="366" y="147.0669">Visualiza  m&#233;tricas</text></g><!--SRC=[ZLDBJXj14DttAKfUcGKSW4KaMo22P4UMCM61hAZeAKn3ktlI7qS4vK1PiCeHVB7Kz7mz38BPLSshL_NgLHkR4OokVKIdx0XU1F1t-mrtjC7CEhYXkxNu8uJKDcOmud2IvmrkacibKQhzFmDBGXaIrYJEASedCXcChyZj57CTDMKN6EWNFg_BQ3QR_qWOILMcZ9I5IGnaGjDYZ34y-19wrCTM6c0S6T62U9uC0zwXvvbkr9CwuwWLiBY4Ehc6G_3SceqzcpROQP5beFN0-ZHwoD45bM4PSpgM8_ZE5fX41UlKxqe2vvRaemwyNTzGBvpTKdYWw2jL5mxlqM0Y4ZqxuFZuoz3guHI-hbOBZdv6ya4CGL9flNukM9vVhKIRIBy_jtqk_ewQrJUwAlLzkgwzN5JRv2qFfm92hdp0TsSOTfLvvcZeqHPziy8IqREoB_JSxFQloAw1skA633m3wYrACYdfoEV5qd2GfoUXuVBby1wCPTfSxryBHVv475QyMJetioOZ1zAQedjYEIGvwMzaq6-UHA43PUujosaT-AI5YJYTTTQvxElwYhd1p6wK4H_QyJ5Htow-wixH3wn8MasIjxBT_msE1R33zQCeqTrolaN5pJG_CsWh_WC0]--></g></svg>