<svg xmlns="http://www.w3.org/2000/svg" xmlns:xlink="http://www.w3.org/1999/xlink" contentStyleType="text/css" height="315px" preserveAspectRatio="none" style="width:1198px;height:315px;background:#FFFFFF;" version="1.1" viewBox="0 0 1198 315" width="1198px" zoomAndPan="magnify"><defs/><g><!--entity Usuario--><g id="elem_Usuario"><ellipse cx="350.5921" cy="14" fill="#F1F1F1" rx="8" ry="8" style="stroke:#181818;stroke-width:0.5;"/><path d="M350.5921,22 L350.5921,49 M337.5921,30 L363.5921,30 M350.5921,49 L337.5921,64 M350.5921,49 L363.5921,64 " fill="none" style="stroke:#181818;stroke-width:0.5;"/><text fill="#000000" font-family="sans-serif" font-size="14" lengthAdjust="spacing" textLength="53.2041" x="323.99" y="78.4951">Usuario</text></g><!--entity Pod--><g id="elem_Pod"><path d="M126.99,168.5 C126.99,158.5 187.5896,158.5 187.5896,158.5 C187.5896,158.5 248.1892,158.5 248.1892,168.5 L248.1892,193.7969 C248.1892,203.7969 187.5896,203.7969 187.5896,203.7969 C187.5896,203.7969 126.99,203.7969 126.99,193.7969 L126.99,168.5 " fill="#F1F1F1" style="stroke:#181818;stroke-width:0.5;"/><path d="M126.99,168.5 C126.99,178.5 187.5896,178.5 187.5896,178.5 C187.5896,178.5 248.1892,178.5 248.1892,168.5 " fill="none" style="stroke:#181818;stroke-width:0.5;"/><text fill="#000000" font-family="sans-serif" font-size="14" lengthAdjust="spacing" textLength="101.1992" x="136.99" y="195.4951">Base de Datos</text></g><g id="elem_WIChat"><ellipse cx="513.3799" cy="181.1699" fill="#F1F1F1" rx="47.8899" ry="14.6699" style="stroke:#181818;stroke-width:0.5;"/><text fill="#000000" font-family="sans-serif" font-size="14" lengthAdjust="spacing" textLength="50.6885" x="485.0357" y="184.9174">WIChat</text></g><g id="elem_Wikidata"><ellipse cx="209.2736" cy="295.2413" fill="#F1F1F1" rx="55.7836" ry="14.7413" style="stroke:#181818;stroke-width:0.5;"/><text fill="#000000" font-family="sans-serif" font-size="14" lengthAdjust="spacing" textLength="61.2637" x="175.6418" y="298.9888">Wikidata</text></g><g id="elem_LLM_API"><ellipse cx="774.4617" cy="295.2139" fill="#F1F1F1" rx="52.4717" ry="14.7139" style="stroke:#181818;stroke-width:0.5;"/><text fill="#000000" font-family="sans-serif" font-size="14" lengthAdjust="spacing" textLength="56.8271" x="743.0481" y="298.9615">LLM_API</text></g><!--link Usuario to WIChat--><g id="link_Usuario_WIChat"><path d="M377.16,53.85 C404.29,64.44 446.24,83.87 474.49,111.5 C490.73,127.38 500.0363,145.9175 506.1663,160.8875 " fill="none" id="Usuario-to-WIChat" style="stroke:#181818;stroke-width:1;"/><polygon fill="#181818" points="508.44,166.44,508.7312,156.5954,506.5453,161.8129,501.3278,159.627,508.44,166.44" style="stroke:#181818;stroke-width:1;"/><text fill="#000000" font-family="sans-serif" font-size="13" lengthAdjust="spacing" textLength="194.0352" x="489.49" y="124.5669">Interactua para jugar al juego</text></g><!--link WIChat to Wikidata--><g id="link_WIChat_Wikidata"><path d="M468.17,186.14 C351.36,196.93 48.6,225.58 41.49,233.5 C6,273.08 87.4776,286.3206 149.0776,291.0506 " fill="none" id="WIChat-to-Wikidata" style="stroke:#181818;stroke-width:1;"/><polygon fill="#181818" points="155.06,291.51,146.3927,286.8327,150.0747,291.1272,145.7802,294.8092,155.06,291.51" style="stroke:#181818;stroke-width:1;"/><text fill="#000000" font-family="sans-serif" font-size="13" lengthAdjust="spacing" textLength="287.8027" x="42.49" y="246.5669">Solicita datos necesarios para las preguntas</text></g><!--link Wikidata to WIChat--><g id="link_Wikidata_WIChat"><path d="M243.32,283.42 C268.7,275.2 304.15,263.1 334.49,250.5 C350.47,243.87 353.55,240.2 369.49,233.5 C407.68,217.45 447.1046,203.7275 476.5246,193.9775 " fill="none" id="Wikidata-to-WIChat" style="stroke:#181818;stroke-width:1;"/><polygon fill="#181818" points="482.22,192.09,472.4186,191.1243,477.4738,193.6629,474.9353,198.7182,482.22,192.09" style="stroke:#181818;stroke-width:1;"/><text fill="#000000" font-family="sans-serif" font-size="13" lengthAdjust="spacing" textLength="238.5322" x="370.49" y="246.5669">Devuelve las im&#225;genes y respuestas</text></g><!--link WIChat to LLM_API--><g id="link_WIChat_LLM_API"><path d="M536.65,193.78 C572.67,212.07 639.17,245.7 650.49,250.5 C680.75,263.31 710.4931,273.6175 735.7231,281.8075 " fill="none" id="WIChat-to-LLM_API" style="stroke:#181818;stroke-width:1;"/><polygon fill="#181818" points="741.43,283.66,734.1047,277.0766,736.6743,282.1162,731.6347,284.6858,741.43,283.66" style="stroke:#181818;stroke-width:1;"/><text fill="#000000" font-family="sans-serif" font-size="13" lengthAdjust="spacing" textLength="200.3955" x="651.49" y="246.5669">Env&#237;a las consultas del usuario</text></g><!--link LLM_API to WIChat--><g id="link_LLM_API_WIChat"><path d="M808.51,283.81 C838.54,273.11 874.91,254.88 856.49,233.5 C819.02,189.98 652.9597,182.7812 567.6797,181.9112 " fill="none" id="LLM_API-to-WIChat" style="stroke:#181818;stroke-width:1;"/><polygon fill="#181818" points="561.68,181.85,570.6387,185.9416,566.6797,181.901,570.7203,177.942,561.68,181.85" style="stroke:#181818;stroke-width:1;"/><text fill="#000000" font-family="sans-serif" font-size="13" lengthAdjust="spacing" textLength="329.4116" x="861.49" y="246.5669">Devuelve respuestas contextuales a las preguntas</text></g><!--link Usuario to Pod--><g id="link_Usuario_Pod"><path d="M323.91,46.13 C284.8,50.12 212.89,63.9 180.49,111.5 C171.21,125.14 172.181,138.2529 176.701,152.7229 " fill="none" id="Usuario-to-Pod" style="stroke:#181818;stroke-width:1;"/><polygon fill="#181818" points="178.49,158.45,179.6246,148.6667,176.9992,153.6774,171.9885,151.052,178.49,158.45" style="stroke:#181818;stroke-width:1;"/><text fill="#000000" font-family="sans-serif" font-size="13" lengthAdjust="spacing" textLength="284.4766" x="181.49" y="124.5669">Puede iniciar sesion y registrar sus partidas</text></g><!--SRC=[TP1BIWGn48RtdgAOrRYO2xWGHiT5mmWD8YwbJ1SncacQL5MZn_40dc8kPgKx-CHT4lvNFdII2zooOWdv1610mGTaWZuFW0ohYteP27OecLUcQ5hORCvXVTTTFgASda6NX0ewKOGH2yAJUYo0qGxaQ_2YRAxm76gH-Mvo32u8rkBCaCWHrtXUOg9D60jvJO9SKvhpL_kE9gKuqQmFX-ERfqGChr28HoLkvcyJzllh-stVcVSgJSVtfSdbn1fDR1-Ee9zGclY_qg-IcY3qOXIYrV-T_uET4RQKNideXcGK31WJXvpcuJwmbFgaCmknV_C7]--></g></svg>